<svg xmlns="http://www.w3.org/2000/svg" viewBox="0 0 600 400"><defs><linearGradient id="g1" x1="0" y1="0" x2="1" y2="1"><stop offset="0" stop-color="#4f8cff"/><stop offset="1" stop-color="#a855f7"/></linearGradient><radialGradient id="glow1" cx="50%" cy="40%" r="60%"><stop offset="0" stop-color="#7dd3fc" stop-opacity="0.35"/><stop offset="1" stop-color="#7dd3fc" stop-opacity="0"/></radialGradient></defs><rect width="600" height="400" fill="#0a0e1a"/><rect width="600" height="400" fill="url(#glow1)"/><g transform="translate(300,210)" fill="none" stroke="url(#g1)" stroke-width="2.5"><polygon points="0,-90 78,-45 78,45 0,90 -78,45 -78,-45" opacity="0.9"/><polygon points="0,-90 78,-45 0,0 -78,-45" opacity="0.5"/><polygon points="78,-45 78,45 0,0" opacity="0.35"/><polygon points="0,0 78,45 0,90 -78,45" opacity="0.6"/><line x1="0" y1="-90" x2="0" y2="0"/><line x1="-78" y1="-45" x2="0" y2="0"/><line x1="78" y1="-45" x2="0" y2="0"/></g><g fill="#7dd3fc"><circle cx="300" cy="120" r="3"/><circle cx="220" cy="260" r="2.5"/><circle cx="410" cy="270" r="2.5"/><circle cx="150" cy="150" r="2"/><circle cx="460" cy="160" r="2"/></g><rect x="230" y="330" width="140" height="34" rx="8" fill="none" stroke="#4f8cff" stroke-width="1.5" opacity="0.7"/><text x="300" y="352" fill="#cbd5f5" font-family="monospace" font-size="13" text-anchor="middle">SCAN • AR • VIEW</text></svg>